HIERARCHY
ROOT Hips
{
	OFFSET 0.000000 0.000000 0.000000 
	CHANNELS 6 Xposition Yposition Zposition Zrotation Yrotation Xrotation
	JOINT LeftUpLeg
	{
		OFFSET 1.363060 -1.794630 0.839290 
		CHANNELS 3 Zrotation Yrotation Xrotation
		JOINT LeftLeg
		{
			OFFSET 2.448110 -6.726130 0.000000 
			CHANNELS 3 Zrotation Yrotation Xrotation
			JOINT LeftFoot
			{
				OFFSET 2.562200 -7.039590 0.000000 
				CHANNELS 3 Zrotation Yrotation Xrotation
				JOINT LeftToeBase
				{
					OFFSET 0.157640 -0.433110 2.322550 
					CHANNELS 3 Zrotation Yrotation Xrotation
					End Site
					{
						OFFSET 0.000000 0.000000 0.000000 
					}
				}
			}
		}
	}
	JOINT RightUpLeg
	{
		OFFSET -1.305520 -1.794630 0.839290 
		CHANNELS 3 Zrotation Yrotation Xrotation
		JOINT RightLeg
		{
			OFFSET -2.542530 -6.985550 0.000000 
			CHANNELS 3 Zrotation Yrotation Xrotation
			JOINT RightFoot
			{
				OFFSET -2.568260 -7.056230 0.000000 
				CHANNELS 3 Zrotation Yrotation Xrotation
				JOINT RightToeBase
				{
					OFFSET -0.164730 -0.452590 2.363150 
					CHANNELS 3 Zrotation Yrotation Xrotation
					End Site
					{
						OFFSET 0.000000 0.000000 0.000000 
					}
				}
			}
		}
	}
	JOINT Spine
	{
		OFFSET 0.028270 2.035590 -0.193380 
		CHANNELS 3 Zrotation Yrotation Xrotation
		JOINT Spine1
		{
			OFFSET 0.056720 2.048850 -0.042750 
			CHANNELS 3 Zrotation Yrotation Xrotation
			JOINT Neck1
			{
				OFFSET -0.054170 1.746240 0.172020 
				CHANNELS 3 Zrotation Yrotation Xrotation
				JOINT Head
				{
					OFFSET 0.104070 1.761360 -0.123970 
					CHANNELS 3 Zrotation Yrotation Xrotation
					End Site
					{
						OFFSET 0.000000 0.000000 0.000000 
					}
				}
			}
			JOINT LeftArm
			{
				OFFSET 3.362410 1.200890 -0.311210 
				CHANNELS 3 Zrotation Yrotation Xrotation
				JOINT LeftForeArm
				{
					OFFSET 4.983000 -0.000000 -0.000000 
					CHANNELS 3 Zrotation Yrotation Xrotation
					JOINT LeftHand
					{
						OFFSET 3.483560 -0.000000 -0.000000 
						CHANNELS 3 Zrotation Yrotation Xrotation
						JOINT LeftHandIndex1
						{
							OFFSET 0.715260 -0.000000 -0.000000 
							CHANNELS 3 Zrotation Yrotation Xrotation
							End Site
							{
								OFFSET 0.000000 0.000000 0.000000 
							}
						}
					}
				}
			}
			JOINT RightArm
			{
				OFFSET -3.136600 1.374050 -0.404650 
				CHANNELS 3 Zrotation Yrotation Xrotation
				JOINT RightForeArm
				{
					OFFSET -5.241900 -0.000000 -0.000000 
					CHANNELS 3 Zrotation Yrotation Xrotation
					JOINT RightHand
					{
						OFFSET -3.444170 -0.000000 -0.000000 
						CHANNELS 3 Zrotation Yrotation Xrotation
						JOINT RightHandIndex1
						{
							OFFSET -0.622530 -0.000000 -0.000000 
							CHANNELS 3 Zrotation Yrotation Xrotation
							End Site
							{
								OFFSET 0.000000 0.000000 0.000000 
							}
						}
					}
				}
			}
		}
	}
}
MOTION
Frames: 9
Frame Time: 0.041667
-1.408207 13.691593 5.969504 -6.830739 -23.897514 16.511094 -2.651040 2.070000 -20.537752 16.297668 20.030353 80.377531 2.236485 -11.883268 -16.078882 4.844900 -13.207000 -40.148200 13.675504 31.468088 -68.625069 -11.608222 -27.042606 71.559803 -1.409660 14.862703 -9.318502 -0.000500 0.145900 -0.400800 2.298803 -6.697775 -4.043359 0.530589 -3.311563 -7.806683 6.461998 15.852374 11.220576 -5.106700 9.640700 10.417100 -43.720624 -49.051911 6.774746 72.336972 -50.584570 -35.760894 -0.139645 3.708310 5.095611 -7.125000 0.000000 0.000000 81.370192 53.915961 54.099362 -148.110089 30.612268 -109.862065 -1.043963 -0.562752 -37.863389 7.125000 0.000000 0.000000 
-1.395299 13.649942 5.954970 -7.169729 -24.469752 16.529814 -2.262783 2.559154 -20.668958 16.564589 20.041415 81.086187 2.223553 -12.151689 -15.865486 4.826000 -13.185100 -40.065300 14.031019 31.766236 -68.792794 -11.656944 -27.081462 71.730058 -1.386841 15.282738 -9.056840 0.000000 0.043800 -0.120500 2.413752 -7.290479 -4.036605 1.085931 -3.550646 -8.046958 6.443367 16.447938 11.280645 -5.154300 9.945100 10.487700 -41.138367 -49.321838 1.798861 61.534989 -49.784725 -27.213079 -0.153198 3.925238 7.613584 -7.125000 0.000000 0.000000 81.351689 53.868661 54.383223 -147.940766 30.826119 -109.724889 -1.052676 -0.558481 -37.237154 7.125000 0.000000 0.000000 
-1.381633 13.610027 5.940110 -7.518624 -24.868253 16.552426 -1.819263 2.943037 -20.828261 16.826181 20.054169 81.770971 2.216083 -12.452513 -15.679638 4.815500 -13.172900 -40.019300 14.434332 31.927759 -68.922093 -11.707024 -27.113331 71.901687 -1.365529 15.655537 -8.818586 -0.000100 -0.059000 0.162200 2.525353 -7.835872 -4.035862 1.577683 -3.773919 -8.183104 6.425957 16.973164 11.336927 -5.171100 10.203600 10.564300 -38.554114 -49.800553 -2.767700 52.702173 -47.659748 -20.996515 -0.112841 4.102272 9.556486 -7.125000 0.000000 0.000000 81.337613 53.908056 54.683204 -147.803271 30.997506 -109.613477 -1.059393 -0.554650 -36.647264 7.125000 0.000000 0.000000 
-1.366990 13.572064 5.925576 -7.882447 -25.125482 16.598293 -1.329173 3.249939 -21.018700 17.079945 20.068117 82.424596 2.214269 -12.778372 -15.529567 4.815800 -13.173300 -40.020500 14.875462 31.973818 -69.037226 -11.755831 -27.139684 72.068509 -1.345461 15.993194 -8.600120 -0.000600 -0.160000 0.439600 2.629398 -8.320471 -4.037953 1.982383 -3.979194 -8.233999 6.396245 17.428437 11.382060 -5.172000 10.416600 10.641900 -36.124588 -50.343075 -7.188837 46.138616 -45.152212 -16.792910 -0.082022 4.229790 10.750351 -7.125000 0.000000 0.000000 81.330998 54.010790 55.008135 -147.711997 31.113003 -109.539301 -1.063002 -0.549933 -36.109097 7.125000 0.000000 0.000000 
-1.351154 13.536162 5.912017 -8.251724 -25.285436 16.677079 -0.819687 3.511621 -21.234123 17.321345 20.083062 83.035476 2.219022 -13.134754 -15.423021 4.818900 -13.176900 -40.034300 15.328411 31.932568 -69.156908 -11.802844 -27.162263 72.228692 -1.327530 16.295706 -8.408190 -0.001400 -0.245000 0.673300 2.716750 -8.716943 -4.035943 2.264614 -4.158976 -8.212181 6.340741 17.795910 11.401537 -5.173000 10.575500 10.707500 -34.011164 -50.781726 -11.436852 41.692653 -43.002735 -14.168097 -0.087417 4.307393 11.004694 -7.125000 0.000000 0.000000 81.291273 54.178925 55.299149 -147.663718 31.166304 -109.503716 -1.064353 -0.543513 -35.619822 7.125000 0.000000 0.000000 
-1.334559 13.502754 5.899761 -8.610266 -25.382132 16.791815 -0.319724 3.750246 -21.470713 17.545351 20.098743 83.592723 2.229187 -13.512817 -15.358066 4.828000 -13.187400 -40.074100 15.759180 31.829970 -69.300449 -11.849264 -27.183057 72.384036 -1.312157 16.567717 -8.245998 -0.002300 -0.309700 0.851000 2.782525 -9.010545 -4.030070 2.419097 -4.304832 -8.164956 6.244375 18.059373 11.388211 -5.194000 10.675700 10.753700 -32.395165 -50.990644 -15.251501 39.126504 -41.630654 -12.756848 -0.144066 4.344072 10.141788 -7.125000 0.000000 0.000000 81.200989 54.365203 55.532801 -147.664393 31.149344 -109.511883 -1.063293 -0.534363 -35.186008 7.125000 0.000000 0.000000 
-1.317421 13.472384 5.889782 -8.919187 -25.443799 16.929590 0.119614 3.974969 -21.716388 17.744379 20.115319 84.081712 2.243293 -13.906563 -15.328234 4.838500 -13.199600 -40.120300 16.116151 31.682824 -69.478282 -11.898628 -27.204011 72.540360 -1.299437 16.813052 -8.112814 -0.003000 -0.351600 0.966000 2.821371 -9.189141 -4.020020 2.446918 -4.408201 -8.115700 6.107475 18.202485 11.342277 -5.239400 10.711300 10.775500 -31.381659 -50.936517 -18.311701 38.221670 -41.213473 -12.318627 -0.261001 4.354770 8.027372 -7.125000 0.000000 0.000000 81.042619 54.546005 55.681701 -147.705836 31.067050 -109.559006 -1.060565 -0.521091 -34.809771 7.125000 0.000000 0.000000 
-1.300392 13.445918 5.881864 -9.150853 -25.487965 17.081168 0.466235 4.192948 -21.969487 17.913194 20.133137 84.492757 2.259415 -14.304004 -15.321869 4.848800 -13.211400 -40.165200 16.358069 31.511626 -69.700528 -11.952840 -27.226558 72.700907 -1.289552 17.027675 -8.007021 -0.003400 -0.375700 1.032200 2.830680 -9.245543 -4.007174 2.357026 -4.461707 -8.082707 5.940328 18.213808 11.271305 -5.305000 10.679800 10.774000 -31.008261 -50.665100 -20.432040 38.777791 -41.729650 -12.712339 -0.432113 4.346040 4.690198 -7.125000 0.000000 0.000000 80.812430 54.699564 55.731298 -147.784091 30.923722 -109.640725 -1.057887 -0.504349 -34.504451 7.125000 0.000000 0.000000 
-1.284339 13.423791 5.875790 -9.287601 -25.512801 17.235845 0.708088 4.401945 -22.232746 18.048994 20.153172 84.820438 2.275253 -14.706688 -15.319946 4.856600 -13.220500 -40.199600 16.460126 31.330235 -69.969579 -12.013127 -27.251205 72.867439 -1.282431 17.198980 -7.926995 -0.003500 -0.383300 1.053100 2.812154 -9.188335 -3.993978 2.169401 -4.465752 -8.074447 5.760444 18.095799 11.188852 -5.380500 10.585000 10.755500 -31.209890 -50.235871 -21.602203 40.632831 -43.033499 -13.883412 -0.646700 4.313913 0.264544 -7.125000 0.000000 0.000000 80.546511 54.830110 55.707754 -147.884356 30.738375 -109.744628 -1.054870 -0.483924 -34.295636 7.125000 0.000000 0.000000 
